{
  "accessors": [
    {
      "bufferView": 2,
      "componentType": 5126,
      "count": 14732,
      "max": [
        0.10142766684293747,
        0.061732590198516846,
        0.03617667034268379
      ],
      "min": [
        -0.10322971642017365,
        -5.080338814877905e-05,
        -0.03806716948747635
      ],
      "type": "VEC3"
    },
    {
      "bufferView": 2,
      "byteOffset": 176784,
      "componentType": 5126,
      "count": 14732,
      "max": [
        0.9999470114707947,
        0.9999958872795105,
        0.9999717473983765
      ],
      "min": [
        -0.9999927878379822,
        -0.999999463558197,
        -0.9999064207077026
      ],
      "type": "VEC3"
    },
    {
      "bufferView": 3,
      "componentType": 5126,
      "count": 14732,
      "max": [
        0.9887909293174744,
        0.9995212554931641,
        0.999484121799469,
        1.0
      ],
      "min": [
        -0.9986047744750977,
        -0.9983653426170349,
        -0.9946262240409851,
        -1.0
      ],
      "type": "VEC4"
    },
    {
      "bufferView": 1,
      "componentType": 5126,
      "count": 14732,
      "max": [
        0.999430775642395,
        0.9994933009147644
      ],
      "min": [
        0.00048828125,
        0.0024415254592895508
      ],
      "type": "VEC2"
    },
    {
      "bufferView": 0,
      "componentType": 5125,
      "count": 60000,
      "type": "SCALAR"
    }
  ],
  "asset": {
    "extras": {
      "author": "3DScanX (https://sketchfab.com/3dscanx)",
      "license": "SKETCHFAB Standard (https://sketchfab.com/licenses)",
      "source": "https://sketchfab.com/3d-models/skateboard-truck-3d-scan-8f64c30c54a947e6ab53d6434ab55a72",
      "title": "Skateboard Truck 3D Scan"
    },
    "generator": "Sketchfab-13.53.0",
    "version": "2.0"
  },
  "bufferViews": [
    {
      "buffer": 0,
      "byteLength": 240000,
      "name": "floatBufferViews",
      "target": 34963
    },
    {
      "buffer": 0,
      "byteLength": 117856,
      "byteOffset": 240000,
      "byteStride": 8,
      "name": "floatBufferViews",
      "target": 34962
    },
    {
      "buffer": 0,
      "byteLength": 353568,
      "byteOffset": 357856,
      "byteStride": 12,
      "name": "floatBufferViews",
      "target": 34962
    },
    {
      "buffer": 0,
      "byteLength": 235712,
      "byteOffset": 711424,
      "byteStride": 16,
      "name": "floatBufferViews",
      "target": 34962
    }
  ],
  "buffers": [
    {
      "byteLength": 947136,
      "uri": "scene.bin"
    }
  ],
  "images": [
    {
      "uri": "textures/default_tex0_baseColor.jpeg"
    },
    {
      "uri": "textures/default_tex0_metallicRoughness.png"
    },
    {
      "uri": "textures/default_tex0_normal.png"
    }
  ],
  "materials": [
    {
      "name": "default_tex0",
      "normalTexture": {
        "index": 2
      },
      "pbrMetallicRoughness": {
        "baseColorTexture": {
          "index": 0
        },
        "metallicRoughnessTexture": {
          "index": 1
        }
      }
    }
  ],
  "meshes": [
    {
      "name": "Object_0",
      "primitives": [
        {
          "attributes": {
            "NORMAL": 1,
            "POSITION": 0,
            "TANGENT": 2,
            "TEXCOORD_0": 3
          },
          "indices": 4,
          "material": 0,
          "mode": 4
        }
      ]
    }
  ],
  "nodes": [
    {
      "children": [
        1
      ],
      "matrix": [
        1.0,
        0.0,
        0.0,
        0.0,
        0.0,
        2.220446049250313e-16,
        -1.0,
        0.0,
        0.0,
        1.0,
        2.220446049250313e-16,
        0.0,
        0.0,
        0.0,
        0.0,
        1.0
      ],
      "name": "Sketchfab_model"
    },
    {
      "children": [
        2
      ],
      "name": "root"
    },
    {
      "children": [
        3
      ],
      "matrix": [
        1.0,
        0.0,
        0.0,
        0.0,
        0.0,
        2.220446049250313e-16,
        1.0,
        0.0,
        0.0,
        -1.0,
        2.220446049250313e-16,
        0.0,
        0.0,
        0.0,
        0.0,
        1.0
      ],
      "name": "GLTF_SceneRootNode"
    },
    {
      "children": [
        4
      ],
      "name": "_0"
    },
    {
      "mesh": 0,
      "name": "Object_4"
    }
  ],
  "samplers": [
    {
      "magFilter": 9729,
      "minFilter": 9729,
      "wrapS": 33071,
      "wrapT": 33071
    },
    {
      "magFilter": 9729,
      "minFilter": 9987,
      "wrapS": 10497,
      "wrapT": 10497
    }
  ],
  "scene": 0,
  "scenes": [
    {
      "name": "Sketchfab_Scene",
      "nodes": [
        0
      ]
    }
  ],
  "textures": [
    {
      "sampler": 0,
      "source": 0
    },
    {
      "sampler": 1,
      "source": 1
    },
    {
      "sampler": 1,
      "source": 2
    }
  ]
}
